<svg xmlns="http://www.w3.org/2000/svg" xmlns:xlink="http://www.w3.org/1999/xlink" viewBox="0 0 400 390">
  <defs>
    <style>
      .cls-1 {
        clip-path: url(#clip-iPhone_6_7_8_2);
      }

      .cls-2, .cls-6 {
        fill: #fff;
      }

      .cls-2 {
        stroke: #707070;
      }

      .cls-3 {
        fill: #263247;
      }

      .cls-4 {
        stroke: none;
      }

      .cls-5 {
        fill: none;
      }
    </style>
    <clipPath id="clip-iPhone_6_7_8_2">
      <rect width="400" height="390"/>
    </clipPath>
  </defs>
  <g id="iPhone_6_7_8_2" data-name="iPhone 6/7/8 – 2" class="cls-1">
    <rect class="cls-6" width="400" height="390"/>
    <g id="Group_241" data-name="Group 241" transform="translate(8 -133)">
      <g id="Group_227" data-name="Group 227">
        <g id="Rectangle_172" data-name="Rectangle 172" class="cls-2" transform="translate(23 226)">
          <rect class="cls-4" width="92" height="92"/>
          <rect class="cls-5" x="0.5" y="0.5" width="91" height="91"/>
        </g>
        <g id="Rectangle_173" data-name="Rectangle 173" class="cls-2" transform="translate(136 227)">
          <rect class="cls-4" width="92" height="92"/>
          <rect class="cls-5" x="0.5" y="0.5" width="91" height="91"/>
        </g>
        <g id="Rectangle_174" data-name="Rectangle 174" class="cls-2" transform="translate(249 226)">
          <rect class="cls-4" width="92" height="92"/>
          <rect class="cls-5" x="0.5" y="0.5" width="91" height="91"/>
        </g>
        <g id="Rectangle_175" data-name="Rectangle 175" class="cls-2" transform="translate(23 334)">
          <rect class="cls-4" width="92" height="92"/>
          <rect class="cls-5" x="0.5" y="0.5" width="91" height="91"/>
        </g>
        <g id="Rectangle_176" data-name="Rectangle 176" class="cls-2" transform="translate(136 334)">
          <rect class="cls-4" width="92" height="92"/>
          <rect class="cls-5" x="0.5" y="0.5" width="91" height="91"/>
        </g>
      </g>
      <g id="Group_229" data-name="Group 229" transform="translate(-97 -28)">
        <path id="Union_12" data-name="Union 12" class="cls-3" d="M0,25.778V22.556c0-3.544,5.8-6.445,12.889-6.445s12.889,2.9,12.889,6.445v3.223ZM6.445,6.445a6.445,6.445,0,1,1,6.445,6.445A6.445,6.445,0,0,1,6.445,6.445Z" transform="translate(150 286.001)"/>
      </g>
      <g id="Group_230" data-name="Group 230" transform="translate(19 -28)">
        <path id="Union_12-2" data-name="Union 12" class="cls-3" d="M0,25.778V22.556c0-3.544,5.8-6.445,12.889-6.445s12.889,2.9,12.889,6.445v3.223ZM6.445,6.445a6.445,6.445,0,1,1,6.445,6.445A6.445,6.445,0,0,1,6.445,6.445Z" transform="translate(150 286.001)"/>
      </g>
      <g id="Group_231" data-name="Group 231" transform="translate(-97 83)">
        <path id="Union_12-3" data-name="Union 12" class="cls-3" d="M0,25.778V22.556c0-3.544,5.8-6.445,12.889-6.445s12.889,2.9,12.889,6.445v3.223ZM6.445,6.445a6.445,6.445,0,1,1,6.445,6.445A6.445,6.445,0,0,1,6.445,6.445Z" transform="translate(150 286.001)"/>
      </g>
      <g id="Group_232" data-name="Group 232" transform="translate(19 83)">
        <path id="Union_12-4" data-name="Union 12" class="cls-3" d="M0,25.778V22.556c0-3.544,5.8-6.445,12.889-6.445s12.889,2.9,12.889,6.445v3.223ZM6.445,6.445a6.445,6.445,0,1,1,6.445,6.445A6.445,6.445,0,0,1,6.445,6.445Z" transform="translate(150 286.001)"/>
      </g>
      <g id="Group_233" data-name="Group 233" transform="translate(132 -28)">
        <path id="Union_12-5" data-name="Union 12" class="cls-3" d="M0,25.778V22.556c0-3.544,5.8-6.445,12.889-6.445s12.889,2.9,12.889,6.445v3.223ZM6.445,6.445a6.445,6.445,0,1,1,6.445,6.445A6.445,6.445,0,0,1,6.445,6.445Z" transform="translate(150 286.001)"/>
      </g>
    </g>
  </g>
</svg>
